<?xml version="1.0"  encoding="UTF-8" standalone="no"?>
<svg version="1.1" xmlns="http://www.w3.org/2000/svg" width="150" height="161">
<g>
<path d="M 143.56 72.32 L 142.63 65.05 L 141.71 57.67 L 139.85 51.22 L 138.10 44.88 L 134.49 38.44 L 130.78 31.99 L 127.17 26.48 L 122.63 21.91 L 117.17 17.33 L 111.71 12.76 L 106.24 9.12 L 99.85 6.32 L 93.56 3.61 L 86.24 1.74 L 79.85 0.81 L 72.63 0.81 L 65.31 0.81 L 58.10 1.74 L 50.78 3.61 L 44.49 6.32 L 38.10 9.12 L 32.63 12.76 L 27.17 17.33 L 21.71 21.91 L 17.17 26.48 L 13.56 31.99 L 9.85 38.44 L 7.17 44.88 L 4.49 51.22 L 2.63 57.67 L 1.71 65.05 L 0.78 72.32 L 1.71 79.70 L 2.63 86.98 L 4.49 93.42 L 7.17 99.87 L 9.85 106.21 L 13.56 112.65 L 17.17 118.16 L 21.71 122.73 L 27.17 127.31 L 32.63 131.88 L 38.10 135.62 L 44.49 138.33 L 50.78 141.03 L 58.10 141.96 L 65.31 143.83 L 72.63 143.83 L 79.85 143.83 L 86.24 141.96 L 93.56 141.03 L 99.85 138.33 L 106.24 135.62 L 111.71 131.88 L 117.17 127.31 L 122.63 122.73 L 127.17 118.16 L 130.78 112.65 L 134.49 106.21 L 138.10 99.87 L 139.85 93.42 L 141.71 86.98 L 142.63 79.70 L 143.56 72.32 Z" stroke="#000000" stroke-width="1.000000"  fill="#008837" /><!-- shit -->
<path d="M 69.03 8.19 L 69.03 9.95 L 75.31 12.76 L 77.17 15.46 L 79.03 18.27 L 102.63 17.33 L 102.63 19.21 L 102.63 20.97 L 102.63 21.91 L 103.56 23.78 L 107.17 23.78 L 108.10 23.78 L 109.85 24.71 L 107.17 40.20 L 105.31 56.73 L 102.63 88.85 L 101.71 119.10 L 101.71 155.79 L 100.78 156.62 L 77.17 155.79 L 55.31 155.79 L 49.85 152.05 L 43.56 148.41 L 40.78 120.03 L 37.17 90.62 L 32.63 62.24 L 26.24 33.86 L 27.17 32.93 L 29.03 31.99 L 29.85 31.06 L 29.03 29.29 L 29.03 27.42 L 33.56 25.55 L 38.10 23.78 L 42.63 21.91 L 47.17 20.97 L 49.03 18.27 L 50.78 15.46 L 56.24 10.89 L 57.17 8.19 L 58.10 6.32 L 59.85 4.55 L 61.71 4.55 L 64.49 4.55 L 66.24 4.55 L 68.10 6.32 L 69.03 8.19 Z" stroke="none" stroke-width="0.0"  fill="#000000" /><!-- shit -->
<path d="M 66.24 9.12 L 59.85 9.95 L 60.78 8.19 L 62.63 7.25 L 64.49 7.25 L 65.31 8.19 L 66.24 9.12 Z" stroke="none" stroke-width="0.0"  fill="#333333" /><!-- shit -->
<path d="M 73.56 18.27 L 72.63 18.27 L 53.56 20.04 L 52.63 19.21 L 55.31 16.40 L 59.03 14.63 L 62.63 14.63 L 67.17 14.63 L 69.85 16.40 L 73.56 18.27 Z" stroke="none" stroke-width="0.0"  fill="#8F96A3" /><!-- shit -->
<path d="M 99.85 22.84 L 70.78 24.71 L 56.24 26.48 L 41.71 28.35 L 41.71 25.55 L 49.03 23.78 L 56.24 22.84 L 70.78 21.91 L 85.31 20.97 L 99.85 20.97 L 99.85 22.84 Z" stroke="none" stroke-width="0.0"  fill="#737B8A" /><!-- shit -->
<path d="M 106.24 26.48 L 103.56 55.79 L 100.78 84.27 L 99.03 136.45 L 99.03 153.92 L 56.24 153.92 L 55.31 121.80 L 49.85 75.96 L 47.17 54.03 L 42.63 31.06 L 49.85 30.12 L 57.17 29.29 L 81.71 26.48 L 93.56 26.48 L 106.24 26.48 Z" stroke="none" stroke-width="0.0"  fill="#C9CDD3" /><!-- shit -->
<path d="M 39.85 28.35 L 37.17 29.29 L 33.56 31.06 L 33.56 29.29 L 36.24 27.42 L 39.85 26.48 L 39.85 28.35 Z" stroke="none" stroke-width="0.0"  fill="#8F96A3" /><!-- shit -->
<path d="M 39.85 31.99 L 44.49 54.03 L 48.10 76.89 L 51.71 121.80 L 52.63 151.11 L 46.24 147.47 L 43.56 119.10 L 39.85 90.62 L 35.31 63.17 L 29.03 35.63 L 34.49 33.86 L 39.85 31.99 Z" stroke="none" stroke-width="0.0"  fill="#737B8A" /><!-- shit -->
<path d="M 93.56 47.58 L 94.49 52.16 L 95.31 56.73 L 91.71 57.67 L 92.63 60.37 L 91.71 64.11 L 89.85 69.62 L 87.17 72.32 L 83.56 75.13 L 79.03 75.96 L 74.49 76.89 L 69.03 75.13 L 66.24 74.19 L 64.49 72.32 L 61.71 70.45 L 59.85 67.75 L 59.03 64.11 L 59.03 61.30 L 58.10 60.37 L 57.17 57.67 L 57.17 54.96 L 58.10 51.22 L 59.03 47.58 L 60.78 44.88 L 65.31 42.07 L 69.85 39.37 L 74.49 38.44 L 79.85 38.44 L 83.56 39.37 L 88.10 41.14 L 90.78 43.94 L 93.56 47.58 Z" stroke="none" stroke-width="0.0"  fill="#000000" /><!-- shit -->
<path d="M 60.78 56.73 L 66.24 55.79 L 71.71 54.96 L 81.71 54.03 L 81.71 52.16 L 81.71 49.45 L 79.85 45.71 L 78.10 43.94 L 75.31 43.01 L 73.56 42.07 L 72.63 42.07 L 68.10 43.94 L 64.49 46.65 L 62.63 49.45 L 60.78 53.09 L 60.78 56.73 Z" stroke="none" stroke-width="0.0"  fill="#737B8A" /><!-- shit -->
<path d="M 73.56 42.07 L 75.31 43.01 L 78.10 43.94 L 79.85 45.71 L 81.71 49.45 L 81.71 52.16 L 81.71 54.03 L 91.71 54.03 L 91.71 52.16 L 90.78 49.45 L 88.10 46.65 L 85.31 43.94 L 82.63 43.01 L 79.03 42.07 L 75.31 42.07 L 72.63 42.07 L 73.56 42.07 Z" stroke="none" stroke-width="0.0"  fill="#8F96A3" /><!-- shit -->
<path d="M 88.10 56.73 L 89.03 59.54 L 89.03 62.24 L 89.03 65.05 L 87.17 67.75 L 84.49 70.45 L 79.85 72.32 L 76.24 73.26 L 71.71 73.26 L 67.17 70.45 L 64.49 68.68 L 62.63 66.81 L 61.71 63.17 L 61.71 60.37 L 62.63 58.60 L 74.49 57.67 L 86.24 56.73 L 88.10 56.73 Z" stroke="none" stroke-width="0.0"  fill="#D90000" /><!-- shit -->
<path d="M 92.63 91.55 L 93.56 94.36 L 93.56 97.06 L 93.56 98.00 L 92.63 98.00 L 90.78 98.00 L 89.03 98.00 L 89.85 103.50 L 89.03 106.21 L 87.17 108.08 L 85.31 110.78 L 82.63 111.72 L 76.24 112.65 L 72.63 111.72 L 69.85 110.78 L 67.17 109.01 L 65.31 106.21 L 64.49 103.50 L 64.49 100.70 L 64.49 98.00 L 63.56 95.29 L 64.49 92.49 L 66.24 88.85 L 68.10 86.04 L 70.78 84.27 L 77.17 83.34 L 83.56 84.27 L 86.24 85.21 L 89.03 86.98 L 90.78 88.85 L 92.63 91.55 Z" stroke="none" stroke-width="0.0"  fill="#000000" /><!-- shit -->
<path d="M 66.24 94.36 L 66.24 96.12 L 66.24 97.06 L 67.17 98.00 L 74.49 96.12 L 82.63 95.29 L 82.63 93.42 L 81.71 90.62 L 79.85 87.91 L 78.10 86.98 L 73.56 86.98 L 70.78 87.91 L 69.03 89.78 L 67.17 91.55 L 66.24 94.36 Z" stroke="none" stroke-width="0.0"  fill="#737B8A" /><!-- shit -->
<path d="M 78.10 86.98 L 79.85 87.91 L 81.71 90.62 L 82.63 93.42 L 82.63 95.29 L 90.78 95.29 L 89.85 92.49 L 88.10 89.78 L 85.31 87.91 L 82.63 86.04 L 79.85 86.04 L 76.24 86.04 L 73.56 86.98 L 78.10 86.98 Z" stroke="none" stroke-width="0.0"  fill="#8F96A3" /><!-- shit -->
<path d="M 87.17 100.70 L 88.10 102.57 L 87.17 105.38 L 85.31 107.14 L 83.56 109.01 L 80.78 110.78 L 77.17 110.78 L 73.56 110.78 L 70.78 109.01 L 69.03 107.14 L 67.17 105.38 L 66.24 103.50 L 66.24 101.63 L 67.17 100.70 L 76.24 98.93 L 86.24 98.00 L 87.17 100.70 Z" stroke="none" stroke-width="0.0"  fill="#FFD900" /><!-- shit -->
<path d="M 88.10 127.31 L 89.85 129.18 L 89.85 131.88 L 89.03 132.82 L 88.10 133.75 L 89.03 135.62 L 89.03 136.45 L 88.10 139.26 L 86.24 141.96 L 84.49 144.77 L 81.71 145.71 L 78.10 145.71 L 74.49 144.77 L 70.78 143.83 L 68.10 141.03 L 67.17 137.39 L 66.24 134.69 L 67.17 128.24 L 69.03 125.54 L 71.71 124.60 L 74.49 122.73 L 78.10 122.73 L 80.78 122.73 L 83.56 123.67 L 86.24 125.54 L 88.10 127.31 Z" stroke="none" stroke-width="0.0"  fill="#000000" /><!-- shit -->
<path d="M 79.03 126.37 L 77.17 125.54 L 73.56 126.37 L 70.78 129.18 L 69.03 131.88 L 80.78 130.11 L 79.03 126.37 Z" stroke="none" stroke-width="0.0"  fill="#737B8A" /><!-- shit -->
<path d="M 80.78 130.11 L 85.31 130.11 L 86.24 130.11 L 87.17 130.11 L 84.49 127.31 L 80.78 125.54 L 77.17 125.54 L 79.03 126.37 L 80.78 130.11 Z" stroke="none" stroke-width="0.0"  fill="#8F96A3" /><!-- shit -->
<path d="M 86.24 134.69 L 86.24 137.39 L 85.31 140.20 L 83.56 141.96 L 80.78 142.90 L 78.10 143.83 L 74.49 143.83 L 71.71 141.96 L 69.85 140.20 L 69.03 139.26 L 69.03 136.45 L 69.03 134.69 L 77.17 133.75 L 85.31 132.82 L 86.24 134.69 Z" stroke="none" stroke-width="0.0"  fill="#008837" /><!-- shit -->
<path d="M 70.78 67.75 L 72.63 66.81 L 73.56 66.81 L 74.49 65.05 L 74.49 63.17 L 74.49 62.24 L 73.56 60.37 L 72.63 59.54 L 70.78 59.54 L 69.03 59.54 L 68.10 60.37 L 67.17 62.24 L 67.17 63.17 L 67.17 65.05 L 68.10 66.81 L 69.03 66.81 L 70.78 67.75 Z" stroke="none" stroke-width="0.0"  fill="#FB6747" /><!-- shit -->
<path d="M 73.56 107.14 L 76.24 106.21 L 77.17 104.44 L 76.24 101.63 L 73.56 100.70 L 71.71 101.63 L 70.78 104.44 L 71.71 106.21 L 73.56 107.14 Z" stroke="none" stroke-width="0.0"  fill="#FFEEA2" /><!-- shit -->
<path d="M 74.49 140.20 L 77.17 139.26 L 78.10 137.39 L 77.17 135.62 L 74.49 134.69 L 72.63 135.62 L 71.71 137.39 L 72.63 139.26 L 74.49 140.20 Z" stroke="none" stroke-width="0.0"  fill="#FFFFFF" /><!-- shit -->
</g>
</svg>
