<?xml version="1.0"  encoding="UTF-8" standalone="no"?>
<svg version="1.1" xmlns="http://www.w3.org/2000/svg" width="557" height="600">
<g>
<path d="M 533.95 268.98 L 530.50 241.92 L 527.05 214.47 L 520.14 190.50 L 513.63 166.92 L 500.21 142.95 L 486.40 118.98 L 472.98 98.49 L 456.11 81.48 L 435.79 64.47 L 415.47 47.46 L 395.15 33.93 L 371.37 23.49 L 347.98 13.44 L 320.76 6.48 L 296.99 3.00 L 270.15 3.00 L 242.92 3.00 L 216.08 6.48 L 188.86 13.44 L 165.47 23.49 L 141.70 33.93 L 121.37 47.46 L 101.05 64.47 L 80.73 81.48 L 63.86 98.49 L 50.44 118.98 L 36.64 142.95 L 26.67 166.92 L 16.70 190.50 L 9.80 214.47 L 6.34 241.92 L 2.89 268.98 L 6.34 296.43 L 9.80 323.49 L 16.70 347.46 L 26.67 371.43 L 36.64 395.01 L 50.44 418.98 L 63.86 439.47 L 80.73 456.48 L 101.05 473.49 L 121.37 490.50 L 141.70 504.42 L 165.47 514.47 L 188.86 524.53 L 216.08 528.00 L 242.92 534.96 L 270.15 534.96 L 296.99 534.96 L 320.76 528.00 L 347.98 524.53 L 371.37 514.47 L 395.15 504.42 L 415.47 490.50 L 435.79 473.49 L 456.11 456.48 L 472.98 439.47 L 486.40 418.98 L 500.21 395.01 L 513.63 371.43 L 520.14 347.46 L 527.05 323.49 L 530.50 296.43 L 533.95 268.98 Z" stroke="#000000" stroke-width="1.000000"  fill="#008837" /><!-- shit -->
<path d="M 256.73 30.45 L 256.73 37.03 L 280.12 47.46 L 287.02 57.51 L 293.92 67.95 L 381.73 64.47 L 381.73 71.43 L 381.73 78.00 L 381.73 81.48 L 385.18 88.44 L 398.60 88.44 L 402.05 88.44 L 408.57 91.92 L 398.60 149.53 L 391.69 210.99 L 381.73 330.45 L 378.27 442.95 L 378.27 579.42 L 374.82 582.51 L 287.02 579.42 L 205.73 579.42 L 185.41 565.50 L 162.02 551.97 L 151.67 446.43 L 138.25 337.03 L 121.37 231.48 L 97.60 125.94 L 101.05 122.46 L 107.95 118.98 L 111.02 115.50 L 107.95 108.93 L 107.95 101.97 L 124.83 95.01 L 141.70 88.44 L 158.57 81.48 L 175.44 78.00 L 182.34 67.95 L 188.86 57.51 L 209.18 40.50 L 212.63 30.45 L 216.08 23.49 L 222.60 16.92 L 229.50 16.92 L 239.86 16.92 L 246.37 16.92 L 253.28 23.49 L 256.73 30.45 Z" stroke="none" stroke-width="0.0"  fill="#000000" /><!-- shit -->
<path d="M 246.37 33.93 L 222.60 37.03 L 226.05 30.45 L 232.95 26.97 L 239.86 26.97 L 242.92 30.45 L 246.37 33.93 Z" stroke="none" stroke-width="0.0"  fill="#333333" /><!-- shit -->
<path d="M 273.60 67.95 L 270.15 67.95 L 199.21 74.53 L 195.76 71.43 L 205.73 60.99 L 219.53 54.42 L 232.95 54.42 L 249.82 54.42 L 259.79 60.99 L 273.60 67.95 Z" stroke="none" stroke-width="0.0"  fill="#8F96A3" /><!-- shit -->
<path d="M 371.37 84.96 L 263.24 91.92 L 209.18 98.49 L 155.12 105.45 L 155.12 95.01 L 182.34 88.44 L 209.18 84.96 L 263.24 81.48 L 317.31 78.00 L 371.37 78.00 L 371.37 84.96 Z" stroke="none" stroke-width="0.0"  fill="#737B8A" /><!-- shit -->
<path d="M 395.15 98.49 L 385.18 207.51 L 374.82 313.44 L 368.31 507.51 L 368.31 572.46 L 209.18 572.46 L 205.73 453.00 L 185.41 282.51 L 175.44 200.94 L 158.57 115.50 L 185.41 112.03 L 212.63 108.93 L 303.89 98.49 L 347.98 98.49 L 395.15 98.49 Z" stroke="none" stroke-width="0.0"  fill="#C9CDD3" /><!-- shit -->
<path d="M 148.21 105.45 L 138.25 108.93 L 124.83 115.50 L 124.83 108.93 L 134.79 101.97 L 148.21 98.49 L 148.21 105.45 Z" stroke="none" stroke-width="0.0"  fill="#8F96A3" /><!-- shit -->
<path d="M 148.21 118.98 L 165.47 200.94 L 178.89 285.99 L 192.31 453.00 L 195.76 562.03 L 171.99 548.49 L 162.02 442.95 L 148.21 337.03 L 131.34 234.96 L 107.95 132.51 L 128.28 125.94 L 148.21 118.98 Z" stroke="none" stroke-width="0.0"  fill="#737B8A" /><!-- shit -->
<path d="M 347.98 176.97 L 351.43 193.98 L 354.50 210.99 L 341.08 214.47 L 344.53 224.53 L 341.08 238.44 L 334.18 258.93 L 324.21 268.98 L 310.79 279.42 L 293.92 282.51 L 277.05 285.99 L 256.73 279.42 L 246.37 275.94 L 239.86 268.98 L 229.50 262.03 L 222.60 251.97 L 219.53 238.44 L 219.53 228.00 L 216.08 224.53 L 212.63 214.47 L 212.63 204.42 L 216.08 190.50 L 219.53 176.97 L 226.05 166.92 L 242.92 156.48 L 259.79 146.43 L 277.05 142.95 L 296.99 142.95 L 310.79 146.43 L 327.66 153.00 L 337.63 163.44 L 347.98 176.97 Z" stroke="none" stroke-width="0.0"  fill="#000000" /><!-- shit -->
<path d="M 226.05 210.99 L 246.37 207.51 L 266.70 204.42 L 303.89 200.94 L 303.89 193.98 L 303.89 183.93 L 296.99 170.01 L 290.47 163.44 L 280.12 159.96 L 273.60 156.48 L 270.15 156.48 L 253.28 163.44 L 239.86 173.49 L 232.95 183.93 L 226.05 197.46 L 226.05 210.99 Z" stroke="none" stroke-width="0.0"  fill="#737B8A" /><!-- shit -->
<path d="M 273.60 156.48 L 280.12 159.96 L 290.47 163.44 L 296.99 170.01 L 303.89 183.93 L 303.89 193.98 L 303.89 200.94 L 341.08 200.94 L 341.08 193.98 L 337.63 183.93 L 327.66 173.49 L 317.31 163.44 L 307.34 159.96 L 293.92 156.48 L 280.12 156.48 L 270.15 156.48 L 273.60 156.48 Z" stroke="none" stroke-width="0.0"  fill="#8F96A3" /><!-- shit -->
<path d="M 327.66 210.99 L 331.11 221.43 L 331.11 231.48 L 331.11 241.92 L 324.21 251.97 L 314.24 262.03 L 296.99 268.98 L 283.57 272.46 L 266.70 272.46 L 249.82 262.03 L 239.86 255.45 L 232.95 248.49 L 229.50 234.96 L 229.50 224.53 L 232.95 217.95 L 277.05 214.47 L 320.76 210.99 L 327.66 210.99 Z" stroke="none" stroke-width="0.0"  fill="#D90000" /><!-- shit -->
<path d="M 344.53 340.50 L 347.98 350.94 L 347.98 360.99 L 347.98 364.47 L 344.53 364.47 L 337.63 364.47 L 331.11 364.47 L 334.18 384.96 L 331.11 395.01 L 324.21 401.97 L 317.31 412.03 L 307.34 415.50 L 283.57 418.98 L 270.15 415.50 L 259.79 412.03 L 249.82 405.45 L 242.92 395.01 L 239.86 384.96 L 239.86 374.53 L 239.86 364.47 L 236.40 354.42 L 239.86 343.98 L 246.37 330.45 L 253.28 320.01 L 263.24 313.44 L 287.02 309.96 L 310.79 313.44 L 320.76 316.92 L 331.11 323.49 L 337.63 330.45 L 344.53 340.50 Z" stroke="none" stroke-width="0.0"  fill="#000000" /><!-- shit -->
<path d="M 246.37 350.94 L 246.37 357.51 L 246.37 360.99 L 249.82 364.47 L 277.05 357.51 L 307.34 354.42 L 307.34 347.46 L 303.89 337.03 L 296.99 326.97 L 290.47 323.49 L 273.60 323.49 L 263.24 326.97 L 256.73 333.93 L 249.82 340.50 L 246.37 350.94 Z" stroke="none" stroke-width="0.0"  fill="#737B8A" /><!-- shit -->
<path d="M 290.47 323.49 L 296.99 326.97 L 303.89 337.03 L 307.34 347.46 L 307.34 354.42 L 337.63 354.42 L 334.18 343.98 L 327.66 333.93 L 317.31 326.97 L 307.34 320.01 L 296.99 320.01 L 283.57 320.01 L 273.60 323.49 L 290.47 323.49 Z" stroke="none" stroke-width="0.0"  fill="#8F96A3" /><!-- shit -->
<path d="M 324.21 374.53 L 327.66 381.48 L 324.21 391.92 L 317.31 398.49 L 310.79 405.45 L 300.44 412.03 L 287.02 412.03 L 273.60 412.03 L 263.24 405.45 L 256.73 398.49 L 249.82 391.92 L 246.37 384.96 L 246.37 378.00 L 249.82 374.53 L 283.57 367.95 L 320.76 364.47 L 324.21 374.53 Z" stroke="none" stroke-width="0.0"  fill="#FFD900" /><!-- shit -->
<path d="M 327.66 473.49 L 334.18 480.45 L 334.18 490.50 L 331.11 493.98 L 327.66 497.46 L 331.11 504.42 L 331.11 507.51 L 327.66 517.95 L 320.76 528.00 L 314.24 538.44 L 303.89 541.92 L 290.47 541.92 L 277.05 538.44 L 263.24 534.96 L 253.28 524.53 L 249.82 510.99 L 246.37 500.94 L 249.82 476.97 L 256.73 466.92 L 266.70 463.44 L 277.05 456.48 L 290.47 456.48 L 300.44 456.48 L 310.79 459.96 L 320.76 466.92 L 327.66 473.49 Z" stroke="none" stroke-width="0.0"  fill="#000000" /><!-- shit -->
<path d="M 293.92 470.01 L 287.02 466.92 L 273.60 470.01 L 263.24 480.45 L 256.73 490.50 L 300.44 483.93 L 293.92 470.01 Z" stroke="none" stroke-width="0.0"  fill="#737B8A" /><!-- shit -->
<path d="M 300.44 483.93 L 317.31 483.93 L 320.76 483.93 L 324.21 483.93 L 314.24 473.49 L 300.44 466.92 L 287.02 466.92 L 293.92 470.01 L 300.44 483.93 Z" stroke="none" stroke-width="0.0"  fill="#8F96A3" /><!-- shit -->
<path d="M 320.76 500.94 L 320.76 510.99 L 317.31 521.43 L 310.79 528.00 L 300.44 531.48 L 290.47 534.96 L 277.05 534.96 L 266.70 528.00 L 259.79 521.43 L 256.73 517.95 L 256.73 507.51 L 256.73 500.94 L 287.02 497.46 L 317.31 493.98 L 320.76 500.94 Z" stroke="none" stroke-width="0.0"  fill="#008837" /><!-- shit -->
<path d="M 263.24 251.97 L 270.15 248.49 L 273.60 248.49 L 277.05 241.92 L 277.05 234.96 L 277.05 231.48 L 273.60 224.53 L 270.15 221.43 L 263.24 221.43 L 256.73 221.43 L 253.28 224.53 L 249.82 231.48 L 249.82 234.96 L 249.82 241.92 L 253.28 248.49 L 256.73 248.49 L 263.24 251.97 Z" stroke="none" stroke-width="0.0"  fill="#FB6747" /><!-- shit -->
<path d="M 273.60 398.49 L 283.57 395.01 L 287.02 388.44 L 283.57 378.00 L 273.60 374.53 L 266.70 378.00 L 263.24 388.44 L 266.70 395.01 L 273.60 398.49 Z" stroke="none" stroke-width="0.0"  fill="#FFEEA2" /><!-- shit -->
<path d="M 277.05 521.43 L 287.02 517.95 L 290.47 510.99 L 287.02 504.42 L 277.05 500.94 L 270.15 504.42 L 266.70 510.99 L 270.15 517.95 L 277.05 521.43 Z" stroke="none" stroke-width="0.0"  fill="#FFFFFF" /><!-- shit -->
</g>
</svg>
